<svg width="79" height="77" viewBox="0 0 79 77" fill="none" xmlns="http://www.w3.org/2000/svg">
<path d="M42.2857 0H36.7143C16.7137 0 0.5 17.4609 0.5 39C0.5 60.5391 16.7137 78 36.7143 78H42.2857C62.2863 78 78.5 60.5391 78.5 39C78.5 17.4609 62.2863 0 42.2857 0Z" fill="white"/>
<path d="M39 71C56.9493 71 71.5 56.6731 71.5 39C71.5 21.3269 56.9493 7 39 7C21.0507 7 6.5 21.3269 6.5 39C6.5 56.6731 21.0507 71 39 71Z" fill="#E0E8E2"/>
<path d="M37.5 15H41.5C54.2025 15 64.5 25.9691 64.5 39.5C64.5 53.0309 54.2025 64 41.5 64H37.5C24.7975 64 14.5 53.0309 14.5 39.5C14.5 25.9691 24.7975 15 37.5 15Z" fill="#FDF8E5"/>
<path d="M49.5987 58C56.6408 54.5281 61.5 47.3708 61.5 39.3759C61.5 28.1572 52.0026 19 40.0574 19C39.2105 19 38.3614 19.0651 37.5 19.1442C37.5709 19.3279 37.6405 19.5098 37.7097 19.6902C38.1714 20.8948 38.6066 22.0302 39.1657 23.1725L39.1711 23.1837L39.176 23.1951C39.9132 24.9022 40.8643 26.6166 41.8197 28.1354C42.8867 29.7632 43.9472 31.2791 45.2166 32.7922L45.2216 32.7981L45.2264 32.8042C46.5369 34.4704 47.6263 36.2375 48.6033 38.1007L48.6102 38.1138L48.6163 38.1274C50.3556 41.9626 51.4562 46.1365 51.3476 50.3331C51.3463 52.9123 50.7195 55.6322 49.5987 58Z" fill="#E0E8E2" stroke="#3A643C"/>
<path d="M49.0518 50.4863L49.0505 50.4748C48.7016 46.8794 47.42 43.3645 45.6511 39.9216L45.645 39.9093C44.8348 38.2198 43.7891 36.72 42.4912 35.099C41.1667 33.4447 39.9562 31.6792 38.9851 29.803C38.0229 27.9441 37.1708 25.9629 36.6816 23.9678L36.6794 23.9586L36.6775 23.9494C36.3543 22.3769 36.1273 20.8039 35.9966 19.3037C33.9079 19.6112 31.98 20.2037 30.1289 20.893C31.1863 25.623 32.8528 29.4584 37.4172 34.6534C39.054 36.3729 42.0988 40.1541 43.928 44.8661C45.6708 49.3557 46.3267 54.7423 43.5406 59.979C45.1261 59.7736 46.7067 59.431 48.2106 59.0113C49.1796 56.2044 49.3911 53.3031 49.0518 50.4863Z" fill="#E0E8E2" stroke="#3A643C"/>
<path d="M28.4272 33.0933C28.1891 34.1155 28.1891 34.2177 27.5938 34.4222C28.9032 34.5244 31.8794 34.5244 33.07 33.0933C31.9985 33.2977 29.6176 33.7066 28.4272 33.0933Z" fill="white"/>
<path d="M27.2398 30.64C27.716 30.1289 30.5731 30.1289 32.0017 30.2311C30.9303 29.72 28.4303 29.9245 27.2398 30.0267C27.0017 30.4356 26.6446 31.1511 27.2398 30.64Z" fill="white"/>
<path d="M25.2279 46.5913L25.2369 46.5859L25.246 46.5808C25.2834 46.5603 25.286 46.5469 25.288 46.541C25.2946 46.5223 25.3032 46.4755 25.2904 46.3899C25.2705 46.2563 25.2109 46.1106 25.1518 46.0032C24.5286 45.7073 24.1713 45.2649 24.0859 44.7375C24.0377 44.4407 24.0837 44.1606 24.1743 43.9223C24.0992 43.8339 24.0386 43.7335 23.9933 43.6232C23.8834 43.3555 23.8821 43.0736 23.9191 42.837C23.9565 42.5975 24.0383 42.3692 24.1339 42.1785C24.2195 42.0079 24.33 41.8399 24.4565 41.714C24.4965 41.6566 24.5167 41.5769 24.4709 41.4513C24.4125 41.2912 24.2328 41.0368 23.7869 40.765L23.7807 40.7613L23.7747 40.7574C23.3188 40.4598 23.0415 40.085 23.0133 39.647C22.9866 39.2341 23.1928 38.9207 23.3727 38.7522C24.4412 37.6777 25.0944 36.983 27.2934 34.4022C27.0551 32.5997 27.2585 30.5554 27.608 28.725C27.9604 26.8795 28.469 25.2116 28.862 24.1612C28.8072 23.7363 28.7113 23.322 28.5992 22.8895C28.5656 22.7597 28.53 22.6266 28.4937 22.4907C28.4509 22.3305 28.407 22.1666 28.3642 22C21.8982 25.4528 17.5 31.9406 17.5 39.3218C17.5 50.4408 27.4348 60 39.6485 60H40.1814C40.2197 59.9352 40.2575 59.8664 40.2991 59.7903L40.304 59.7815C40.3598 59.6795 40.4232 59.5636 40.5 59.4429C40.3384 57.8122 39.313 55.4701 37.9311 53.4975C37.2215 52.4845 36.4373 51.5977 35.663 50.9753C34.8801 50.3461 34.1623 50.0307 33.5704 50.0493C29.8013 50.2518 28.5514 50.2537 26.7398 50.0468C25.6772 49.9254 25.0286 49.2694 24.7732 48.5359C24.649 48.1792 24.6171 47.8012 24.6804 47.4628C24.7427 47.1299 24.9099 46.7851 25.2279 46.5913Z" fill="#E0E8E2" stroke="#147A36"/>
<path d="M27.5938 36.4222C28.9032 36.5244 31.8794 36.5244 33.07 35.0933C31.9985 35.2977 29.6176 35.7066 28.4272 35.0933C28.1891 36.1155 28.1891 36.2177 27.5938 36.4222Z" fill="#6B8E70"/>
<path d="M27.2398 32.64C27.716 32.1289 30.5731 32.1289 32.0017 32.2311C30.9303 31.72 28.4303 31.9245 27.2398 32.0267C27.0017 32.4356 26.6446 33.1511 27.2398 32.64Z" fill="#3A643C"/>
</svg>
